<svg xmlns="http://www.w3.org/2000/svg" width="500" height="500" style="width:100%;height:100%;transform:translate3d(0,0,0);content-visibility:visible" viewBox="0 0 500 500"><defs><clipPath id="e"><path d="M0 0h500v500H0z"/></clipPath><clipPath id="p"><path d="M0 0h500v500H0z"/></clipPath><clipPath id="o"><path d="M0 0h500v500H0z"/></clipPath><clipPath id="l"><path d="M0 0h500v500H0z"/></clipPath><clipPath id="m"><path d="M0 0h500v500H0z"/></clipPath><clipPath id="i"><path d="M0 0h500v500H0z"/></clipPath><clipPath id="j"><path d="M0 0h500v500H0z"/></clipPath><clipPath id="f"><path d="M0 0h500v500H0z"/></clipPath><mask id="n" mask-type="alpha"><use xmlns:ns1="http://www.w3.org/1999/xlink" ns1:href="#a"/></mask><mask id="k" mask-type="alpha"><use xmlns:ns2="http://www.w3.org/1999/xlink" ns2:href="#b"/></mask><mask id="h" mask-type="alpha"><use xmlns:ns3="http://www.w3.org/1999/xlink" ns3:href="#c"/></mask><mask id="g" mask-type="alpha"><use xmlns:ns4="http://www.w3.org/1999/xlink" ns4:href="#d"/></mask><g id="a" class="primary design" style="display:none"><path class="primary"/><path fill-opacity="0" class="primary"/></g><g id="b" class="primary design" style="display:none"><path class="primary"/><path fill-opacity="0" class="primary"/></g><g id="c" class="primary design" style="display:none"><path class="primary"/><path fill-opacity="0" class="primary"/></g><g id="d" class="primary design" style="display:none"><path class="primary"/><path fill-opacity="0" class="primary"/></g></defs><g clip-path="url(#e)"><g clip-path="url(#f)" style="display:none"><g class="primary design" style="display:none"><path class="primary"/></g><g fill="none" class="primary design" style="display:none"><path class="primary"/><path class="primary"/></g><g class="primary design" style="display:none"><path class="primary"/></g><g class="primary design" mask="url(#g)" style="display:none"><path class="primary"/><path class="primary"/><path fill="none" class="primary"/></g><g class="primary design" mask="url(#h)" style="display:none"><path class="primary"/><path fill="none" class="primary"/></g></g><g clip-path="url(#i)" style="display:none"><g class="primary design" style="display:none"><path class="primary"/></g><g clip-path="url(#j)" mask="url(#k)" style="display:none"><g class="primary design" style="display:none"><path class="primary"/><path fill="none" class="primary"/></g><g class="primary design" style="display:none"><path class="primary"/><path class="primary"/><path fill="none" class="primary"/></g><g class="primary design" style="display:none"><path class="primary"/><path fill="none" class="primary"/></g><g class="primary design" style="display:none"><path class="primary"/><path fill="none" class="primary"/></g></g></g><g clip-path="url(#l)" style="display:none"><g fill="none" class="primary design" style="display:none"><path class="primary"/><path class="primary"/></g><g class="primary design" style="display:none"><path class="primary"/></g><g clip-path="url(#m)" mask="url(#n)" style="display:none"><g class="primary design" style="display:none"><path class="primary"/><path class="primary"/><path fill="none" class="primary"/></g><g class="primary design" style="display:none"><path class="primary"/><path fill="none" class="primary"/></g></g><g class="primary design" style="display:none"><path class="primary"/></g></g><g clip-path="url(#o)" style="display:block"><g fill="none" class="primary design" style="display:none"><path class="primary"/><path class="primary"/></g><g fill="none" class="primary design" style="display:none"><path class="primary"/><path class="primary"/></g><g fill="none" class="primary design" style="display:none"><path class="primary"/><path class="primary"/></g><g class="primary design" style="display:none"><path fill="none" class="primary"/></g><g class="primary design" style="display:block"><path fill="#121331" d="M388.737 155.025H92.95l27.912 251.626c3.124 28.746 27.704 50.409 56.866 50.409h142.06c29.162 0 53.742-21.663 56.866-50.409l27.912-251.626h-15.83zM269.589 248.76c0-11.457 9.374-20.83 20.83-20.83 11.457 0 20.83 9.373 20.83 20.83v124.98c0 11.456-9.373 20.83-20.83 20.83-11.456 0-20.83-9.374-20.83-20.83V248.76zm-83.32 0c0-11.457 9.374-20.83 20.83-20.83 11.457 0 20.83 9.373 20.83 20.83v124.98c0 11.456-9.373 20.83-20.83 20.83-11.456 0-20.83-9.374-20.83-20.83V248.76z" class="primary"/></g><g class="primary design" style="display:block"><path fill="#121331" d="M415.396 82.116h-145.81v-20.83c0-11.498-9.311-20.83-20.83-20.83-11.519 0-20.83 9.332-20.83 20.83v20.83H82.116c-11.519 0-20.83 9.332-20.83 20.83 0 11.498 9.311 20.83 20.83 20.83h333.28c11.519 0 20.83-9.332 20.83-20.83 0-11.498-9.311-20.83-20.83-20.83z" class="primary"/></g><g class="primary design" style="display:none"><path class="primary"/></g><g class="primary design" style="display:none"><path class="primary"/></g></g><g clip-path="url(#p)" style="display:none"><g fill="none" class="primary design" style="display:none"><path class="primary"/><path class="primary"/></g><g class="primary design" style="display:none"><path fill="none" class="primary"/></g><g class="primary design" style="display:none"><path class="primary"/></g><g class="primary design" style="display:none"><path class="primary"/></g></g></g></svg>